<mxfile host="app.diagrams.net" modified="2023-06-01T17:00:05.894Z" agent="Mozilla/5.0 (Windows NT 10.0; Win64; x64) AppleWebKit/537.36 (KHTML, like Gecko) Chrome/113.0.0.0 Safari/537.36" etag="LWMOwT09gZrIuPsNzIxm" version="21.3.6" type="device">
  <diagram name="Страница 1" id="D0hP03f-3A9dbsu5qYz4">
    <mxGraphModel dx="1054" dy="858" grid="1" gridSize="10" guides="1" tooltips="1" connect="1" arrows="1" fold="1" page="1" pageScale="1" pageWidth="827" pageHeight="1169" math="0" shadow="0">
      <root>
        <mxCell id="0" />
        <mxCell id="1" parent="0" />
        <mxCell id="eXIGupaMxEpnHLVm7Y-Q-1" value="Покупатель&amp;nbsp;&lt;br&gt;Сергей" style="rounded=0;whiteSpace=wrap;html=1;fillColor=none;" vertex="1" parent="1">
          <mxGeometry x="40" y="120" width="90" height="50" as="geometry" />
        </mxCell>
        <mxCell id="eXIGupaMxEpnHLVm7Y-Q-2" value="" style="endArrow=none;dashed=1;html=1;dashPattern=1 3;strokeWidth=2;rounded=0;entryX=0.422;entryY=1;entryDx=0;entryDy=0;entryPerimeter=0;exitX=0.36;exitY=-0.06;exitDx=0;exitDy=0;exitPerimeter=0;" edge="1" parent="1" source="eXIGupaMxEpnHLVm7Y-Q-3" target="eXIGupaMxEpnHLVm7Y-Q-1">
          <mxGeometry width="50" height="50" relative="1" as="geometry">
            <mxPoint x="250" y="420" as="sourcePoint" />
            <mxPoint x="300" y="370" as="targetPoint" />
          </mxGeometry>
        </mxCell>
        <mxCell id="eXIGupaMxEpnHLVm7Y-Q-3" value="Покупатель" style="whiteSpace=wrap;html=1;fillColor=none;" vertex="1" parent="1">
          <mxGeometry x="40" y="430" width="100" height="40" as="geometry" />
        </mxCell>
        <mxCell id="eXIGupaMxEpnHLVm7Y-Q-4" value="" style="endArrow=classic;html=1;rounded=0;" edge="1" parent="1">
          <mxGeometry width="50" height="50" relative="1" as="geometry">
            <mxPoint x="80" y="220" as="sourcePoint" />
            <mxPoint x="490" y="220" as="targetPoint" />
          </mxGeometry>
        </mxCell>
        <mxCell id="eXIGupaMxEpnHLVm7Y-Q-5" value="" style="endArrow=classic;html=1;rounded=0;" edge="1" parent="1">
          <mxGeometry width="50" height="50" relative="1" as="geometry">
            <mxPoint x="490" y="400" as="sourcePoint" />
            <mxPoint x="80" y="400" as="targetPoint" />
          </mxGeometry>
        </mxCell>
        <mxCell id="eXIGupaMxEpnHLVm7Y-Q-6" value="Форма ввода имя пользователя и пароль: &lt;br&gt;username = &#39;sergey&#39; и password = &#39;sergey1234&#39;&#39;" style="text;html=1;align=center;verticalAlign=middle;resizable=0;points=[];autosize=1;strokeColor=none;fillColor=none;" vertex="1" parent="1">
          <mxGeometry x="140" y="170" width="280" height="40" as="geometry" />
        </mxCell>
        <mxCell id="eXIGupaMxEpnHLVm7Y-Q-7" value="Тест кейс &quot;неверный пароль&quot;" style="text;html=1;align=center;verticalAlign=middle;resizable=0;points=[];autosize=1;strokeColor=none;fillColor=none;" vertex="1" parent="1">
          <mxGeometry x="210" y="48" width="190" height="30" as="geometry" />
        </mxCell>
        <mxCell id="eXIGupaMxEpnHLVm7Y-Q-8" value="NAS -&amp;nbsp;сервер для хранения данных" style="rounded=0;whiteSpace=wrap;html=1;fillColor=none;" vertex="1" parent="1">
          <mxGeometry x="450" y="110" width="120" height="60" as="geometry" />
        </mxCell>
        <mxCell id="eXIGupaMxEpnHLVm7Y-Q-9" value="" style="endArrow=none;dashed=1;html=1;dashPattern=1 3;strokeWidth=2;rounded=0;entryX=0;entryY=1;entryDx=0;entryDy=0;" edge="1" parent="1" target="eXIGupaMxEpnHLVm7Y-Q-8">
          <mxGeometry width="50" height="50" relative="1" as="geometry">
            <mxPoint x="490" y="420" as="sourcePoint" />
            <mxPoint x="580" y="220" as="targetPoint" />
            <Array as="points">
              <mxPoint x="490" y="170" />
            </Array>
          </mxGeometry>
        </mxCell>
        <mxCell id="eXIGupaMxEpnHLVm7Y-Q-10" value="NAS -&amp;nbsp;сервер для хранения данных" style="rounded=0;whiteSpace=wrap;html=1;fillColor=none;" vertex="1" parent="1">
          <mxGeometry x="470" y="420" width="120" height="60" as="geometry" />
        </mxCell>
        <mxCell id="eXIGupaMxEpnHLVm7Y-Q-11" value="Запрос &lt;br&gt;на доступ к сайту" style="text;html=1;align=center;verticalAlign=middle;resizable=0;points=[];autosize=1;strokeColor=none;fillColor=none;" vertex="1" parent="1">
          <mxGeometry x="490" y="225" width="120" height="40" as="geometry" />
        </mxCell>
        <mxCell id="eXIGupaMxEpnHLVm7Y-Q-12" value="Отказ в доступе&lt;br&gt;(неверный пароль)" style="text;html=1;align=center;verticalAlign=middle;resizable=0;points=[];autosize=1;strokeColor=none;fillColor=none;" vertex="1" parent="1">
          <mxGeometry x="490" y="325" width="130" height="40" as="geometry" />
        </mxCell>
        <mxCell id="eXIGupaMxEpnHLVm7Y-Q-13" value="" style="endArrow=classic;html=1;rounded=0;" edge="1" parent="1">
          <mxGeometry width="50" height="50" relative="1" as="geometry">
            <mxPoint x="720" y="370" as="sourcePoint" />
            <mxPoint x="490" y="370" as="targetPoint" />
          </mxGeometry>
        </mxCell>
        <mxCell id="eXIGupaMxEpnHLVm7Y-Q-15" value="" style="endArrow=classic;html=1;rounded=0;" edge="1" parent="1">
          <mxGeometry width="50" height="50" relative="1" as="geometry">
            <mxPoint x="490" y="270" as="sourcePoint" />
            <mxPoint x="720" y="270" as="targetPoint" />
          </mxGeometry>
        </mxCell>
        <mxCell id="eXIGupaMxEpnHLVm7Y-Q-16" value="Radius&amp;nbsp;&lt;br&gt;(Служит для аутентификации пользователя)" style="rounded=0;whiteSpace=wrap;html=1;" vertex="1" parent="1">
          <mxGeometry x="660" y="110" width="120" height="60" as="geometry" />
        </mxCell>
        <mxCell id="eXIGupaMxEpnHLVm7Y-Q-17" value="Radius&amp;nbsp;&lt;br&gt;(Служит для аутентификации пользователя)" style="rounded=0;whiteSpace=wrap;html=1;" vertex="1" parent="1">
          <mxGeometry x="660" y="420" width="120" height="60" as="geometry" />
        </mxCell>
        <mxCell id="eXIGupaMxEpnHLVm7Y-Q-18" value="" style="endArrow=none;dashed=1;html=1;dashPattern=1 3;strokeWidth=2;rounded=0;entryX=0.5;entryY=1;entryDx=0;entryDy=0;exitX=0.5;exitY=0;exitDx=0;exitDy=0;" edge="1" parent="1" source="eXIGupaMxEpnHLVm7Y-Q-17" target="eXIGupaMxEpnHLVm7Y-Q-16">
          <mxGeometry width="50" height="50" relative="1" as="geometry">
            <mxPoint x="720" y="410" as="sourcePoint" />
            <mxPoint x="740" y="180" as="targetPoint" />
          </mxGeometry>
        </mxCell>
        <mxCell id="eXIGupaMxEpnHLVm7Y-Q-21" value="Не удалось найти логин или пароль пользователя&lt;br&gt;Повторите попытку снова." style="text;html=1;align=center;verticalAlign=middle;resizable=0;points=[];autosize=1;strokeColor=none;fillColor=none;" vertex="1" parent="1">
          <mxGeometry x="109" y="360" width="300" height="40" as="geometry" />
        </mxCell>
        <mxCell id="eXIGupaMxEpnHLVm7Y-Q-22" value="" style="endArrow=classic;html=1;rounded=0;" edge="1" parent="1">
          <mxGeometry width="50" height="50" relative="1" as="geometry">
            <mxPoint x="720" y="300" as="sourcePoint" />
            <mxPoint x="960" y="300" as="targetPoint" />
          </mxGeometry>
        </mxCell>
        <mxCell id="eXIGupaMxEpnHLVm7Y-Q-23" value="" style="endArrow=classic;html=1;rounded=0;" edge="1" parent="1">
          <mxGeometry width="50" height="50" relative="1" as="geometry">
            <mxPoint x="960" y="350" as="sourcePoint" />
            <mxPoint x="720" y="350" as="targetPoint" />
          </mxGeometry>
        </mxCell>
        <mxCell id="eXIGupaMxEpnHLVm7Y-Q-24" value="Неверный пароль" style="text;html=1;align=center;verticalAlign=middle;resizable=0;points=[];autosize=1;strokeColor=none;fillColor=none;" vertex="1" parent="1">
          <mxGeometry x="760" y="325" width="120" height="30" as="geometry" />
        </mxCell>
        <mxCell id="eXIGupaMxEpnHLVm7Y-Q-25" value="DB (DataBase) - База данных" style="rounded=0;whiteSpace=wrap;html=1;" vertex="1" parent="1">
          <mxGeometry x="900" y="110" width="120" height="60" as="geometry" />
        </mxCell>
        <mxCell id="eXIGupaMxEpnHLVm7Y-Q-26" value="" style="endArrow=none;dashed=1;html=1;dashPattern=1 3;strokeWidth=2;rounded=0;" edge="1" parent="1">
          <mxGeometry width="50" height="50" relative="1" as="geometry">
            <mxPoint x="960" y="400" as="sourcePoint" />
            <mxPoint x="960" y="170" as="targetPoint" />
          </mxGeometry>
        </mxCell>
        <mxCell id="eXIGupaMxEpnHLVm7Y-Q-28" value="DB (DataBase) - База данных" style="rounded=0;whiteSpace=wrap;html=1;" vertex="1" parent="1">
          <mxGeometry x="900" y="400" width="120" height="60" as="geometry" />
        </mxCell>
        <mxCell id="eXIGupaMxEpnHLVm7Y-Q-29" value="Аутентификация пользователя &lt;br&gt;(проверка логин и пароль)" style="text;html=1;align=center;verticalAlign=middle;resizable=0;points=[];autosize=1;strokeColor=none;fillColor=none;" vertex="1" parent="1">
          <mxGeometry x="740" y="265" width="200" height="40" as="geometry" />
        </mxCell>
      </root>
    </mxGraphModel>
  </diagram>
</mxfile>
